<svg width="38" height="32" viewBox="0 0 38 32" fill="none" xmlns="http://www.w3.org/2000/svg">
<path d="M32.6541 2.90682H20.434C19.5535 1.18148 17.7547 0 15.673 0H5.34591C2.38994 0 0 2.37546 0 5.31354V26.6865C0 29.6183 2.38994 32 5.34591 32H32.6541C35.6038 32 38 29.6245 38 26.6865V8.22036C38 5.28853 35.6101 2.90682 32.6541 2.90682ZM24.8868 18.6286H20.3145V22.817C20.3145 23.5421 19.7233 24.1297 18.9937 24.1297C18.2642 24.1297 17.673 23.5421 17.673 22.817V18.6286H13.1006C12.3711 18.6286 11.7799 18.041 11.7799 17.3159C11.7799 16.5907 12.3711 16.0031 13.1006 16.0031H17.673V11.3585C17.673 10.6333 18.2642 10.0457 18.9937 10.0457C19.7233 10.0457 20.3145 10.6333 20.3145 11.3585V16.0031H24.8868C25.6164 16.0031 26.2075 16.5907 26.2075 17.3159C26.2075 18.041 25.6164 18.6286 24.8868 18.6286Z" fill="#989898"/>
</svg>
