<svg width="38" height="32" viewBox="0 0 38 32" fill="none" xmlns="http://www.w3.org/2000/svg">
<path d="M32.6541 2.90682H20.434C19.5535 1.18148 17.7547 0 15.673 0H5.34591C2.38994 0 0 2.37546 0 5.31354V26.6865C0 29.6183 2.38994 32 5.34591 32H32.6541C35.6038 32 38 29.6245 38 26.6865V8.22036C38 5.28853 35.6101 2.90682 32.6541 2.90682ZM25.4906 17.4034L23.717 19.1787L24.1384 21.6855C24.4214 23.3858 22.6855 24.6861 21.195 23.8797L19.0063 22.6982L16.8176 23.8797C15.327 24.6861 13.5912 23.3858 13.8742 21.6855L14.2956 19.1787L12.522 17.4034C11.3208 16.1969 11.9811 14.0965 13.6478 13.8465L16.1006 13.4776L17.195 11.1959C17.9371 9.64563 20.088 9.64563 20.8302 11.1959L21.9245 13.4776L24.3774 13.8465C26.044 14.0965 26.7044 16.1969 25.5031 17.4034H25.4906Z" fill="#54B8F8"/>
</svg>
