<svg width="25" height="22" viewBox="0 0 25 22" fill="none" xmlns="http://www.w3.org/2000/svg">
<path d="M21.483 1.99844H13.4434C12.8641 0.812268 11.6807 0 10.3112 0H3.51705C1.57233 0 0 1.63313 0 3.65306V18.3469C0 20.3626 1.57233 22 3.51705 22H21.483C23.4235 22 25 20.3669 25 18.3469V5.65149C25 3.63587 23.4277 1.99844 21.483 1.99844ZM16.7701 11.9648L15.6033 13.1854L15.8805 14.9088C16.0667 16.0777 14.9247 16.9717 13.9441 16.4173L12.5041 15.605L11.0642 16.4173C10.0836 16.9717 8.94158 16.0777 9.12777 14.9088L9.405 13.1854L8.23817 11.9648C7.44787 11.1354 7.88232 9.69135 8.97882 9.51944L10.5925 9.26587L11.3125 7.69721C11.8007 6.63137 13.2158 6.63137 13.7041 7.69721L14.424 9.26587L16.0377 9.51944C17.1342 9.69135 17.5687 11.1354 16.7784 11.9648H16.7701Z" fill="#54B8F8"/>
</svg>
