<svg width="99" height="23" viewBox="0 0 99 23" fill="none" xmlns="http://www.w3.org/2000/svg">
<g clip-path="url(#clip0_101_105)">
<path d="M88.3045 0C84.2553 0 80.724 2.39275 78.8767 5.91827C78.363 4.94968 77.7187 4.05906 76.9398 3.26285C74.8112 1.09582 72.0139 -0.0246253 69.0656 0.119022C66.2968 0.250357 63.7156 1.52266 61.8031 3.702C59.907 5.86492 58.859 8.68451 58.859 11.6477V13.0965C58.859 13.1294 58.8549 13.1622 58.8549 13.1991C58.8549 13.2361 58.8549 13.2648 58.859 13.3017V20.9397C58.859 21.7441 59.4707 22.3967 60.225 22.3967C60.9794 22.3967 61.5911 21.7441 61.5911 20.9397V14.6602H69.5468C70.3012 14.6602 70.9129 14.0077 70.9129 13.2032C70.9129 12.3988 70.3012 11.7463 69.5468 11.7463H61.5911V11.656C61.5911 7.02641 64.9267 3.24233 69.1798 3.03712C71.3777 2.93451 73.4615 3.76356 75.0436 5.38062C76.6299 6.99768 77.5025 9.17291 77.5025 11.5123C77.5025 11.5657 77.5107 11.6149 77.5189 11.6642C77.5963 17.9313 82.404 23.0082 88.3005 23.0082C94.1969 23.0082 99.0862 17.8492 99.0862 11.5082C99.0862 5.1672 94.254 0 88.3045 0ZM88.3045 20.0819C83.8639 20.0819 80.255 16.2322 80.255 11.5C80.255 6.76784 83.8679 2.91809 88.3045 2.91809C92.7411 2.91809 96.3541 6.76784 96.3541 11.5C96.3541 16.2322 92.7411 20.0819 88.3045 20.0819Z" fill="#00BCFF"/>
<path d="M52.4278 0.607423C51.6735 0.607423 51.0618 1.25999 51.0618 2.06442V3.85796C49.0841 1.49393 46.2092 0 43.0123 0C38.9671 0 35.4399 2.38455 33.5926 5.90596C33.299 5.34368 32.9606 4.80193 32.5773 4.29711C31.0685 2.29425 28.9481 0.874197 26.6156 0.299607C25.8816 0.119022 25.1435 0.607423 24.9722 1.39133C24.801 2.17523 25.2618 2.95914 25.9958 3.13972C29.6576 4.04675 32.2184 7.48608 32.2184 11.5C32.2184 16.2322 28.6055 20.0819 24.1689 20.0819C22.3869 20.0819 20.7354 19.4622 19.402 18.4115C20.764 16.4866 21.5714 14.0898 21.5714 11.5C21.5714 8.45057 20.4622 5.57352 18.4478 3.4065C18.1909 3.13151 17.8402 2.97555 17.4773 2.97555C17.1103 2.97555 16.7637 3.13151 16.5068 3.4065C14.4924 5.57352 13.3832 8.44647 13.3832 11.5C13.3832 14.0939 14.1906 16.4866 15.5526 18.4115C14.2192 19.4622 12.5677 20.0819 10.7857 20.0819C6.345 20.0819 2.73618 16.2322 2.73618 11.5C2.73618 7.48198 5.29294 4.04675 8.95885 3.13972C9.69285 2.95914 10.1536 2.17523 9.98237 1.39133C9.8111 0.607423 9.07711 0.119022 8.33903 0.299607C6.00247 0.878301 3.88611 2.29836 2.37734 4.29711C0.844097 6.32869 0 8.88562 0 11.5C0 17.841 4.84031 23 10.7857 23C13.3098 23 15.6382 22.0683 17.4773 20.5128C19.3164 22.0683 21.6448 23 24.1689 23C28.2141 23 31.7454 20.6113 33.5886 17.0899C35.4358 20.6113 38.9631 23 43.0082 23C46.2052 23 49.08 21.5061 51.0577 19.142V20.9356C51.0577 21.74 51.6694 22.3926 52.4238 22.3926C53.1781 22.3926 53.7898 21.74 53.7898 20.9356V2.06442C53.7898 1.25999 53.1781 0.607423 52.4238 0.607423H52.4278ZM17.4773 16.2691C16.621 14.9024 16.1194 13.2648 16.1194 11.5C16.1194 9.73519 16.5965 8.12634 17.4773 6.7227C18.3622 8.12634 18.8352 9.77623 18.8352 11.5C18.8352 13.2238 18.3336 14.9024 17.4773 16.2691ZM43.0123 20.086C38.5716 20.086 34.9628 16.2363 34.9628 11.5041C34.9628 6.77195 38.5757 2.9222 43.0123 2.9222C47.4489 2.9222 51.0618 6.77195 51.0618 11.5041C51.0618 16.2363 47.4489 20.086 43.0123 20.086Z" fill="#00BCFF"/>
</g>
<defs>
<clipPath id="clip0_101_105">
<rect width="99" height="23" fill="white"/>
</clipPath>
</defs>
</svg>
