<svg width="24" height="28" viewBox="0 0 24 28" fill="none" xmlns="http://www.w3.org/2000/svg">
<g clip-path="url(#clip0_73_6)">
<path d="M23.9883 22.5562C23.7973 17.0059 18.5029 12.5562 11.9961 12.5562C5.48928 12.5562 0 17.1716 0 22.8639H0.0116959V24.0513C0.0116959 26.2288 1.75828 27.9961 3.91033 27.9961H20.1014C22.2534 27.9961 24 26.2288 24 24.0513V22.7337C24 22.6706 23.9922 22.6114 23.9922 22.5523L23.9883 22.5562Z" fill="#C9C9C9"/>
<path d="M15.752 9.14246C17.8196 7.05043 17.8196 3.65856 15.752 1.56652C13.6844 -0.525519 10.3323 -0.525519 8.26468 1.56652C6.19711 3.65856 6.19711 7.05043 8.26468 9.14246C10.3323 11.2345 13.6844 11.2345 15.752 9.14246Z" fill="#C9C9C9"/>
</g>
<defs>
<clipPath id="clip0_73_6">
<rect width="24" height="28" fill="white"/>
</clipPath>
</defs>
</svg>
