<svg width="25" height="25" viewBox="0 0 25 25" fill="none" xmlns="http://www.w3.org/2000/svg">
<g clip-path="url(#clip0_127_36)">
<path d="M24.3112 21.0653L18.0301 14.923C17.9768 14.8736 17.9236 14.8241 17.8703 14.7817C18.8183 13.2912 19.3722 11.5287 19.3722 9.63196C19.3687 4.31266 15.0334 0 9.68257 0C4.33177 0 0 4.31266 0 9.63196C0 14.9513 4.33532 19.2639 9.68257 19.2639C11.465 19.2639 13.1373 18.7836 14.5718 17.9465C14.6393 18.0348 14.7103 18.1195 14.7919 18.1972L21.073 24.3395C21.5239 24.7775 22.1062 24.9965 22.6921 24.9965C23.2779 24.9965 23.8851 24.7669 24.3396 24.3112C25.2343 23.407 25.2201 21.9518 24.3112 21.0653Z" fill="#00BCFF"/>
</g>
<defs>
<clipPath id="clip0_127_36">
<rect width="25" height="25" fill="white"/>
</clipPath>
</defs>
</svg>
