<svg width="26" height="22" viewBox="0 0 26 22" fill="none" xmlns="http://www.w3.org/2000/svg">
<g clip-path="url(#clip0_1_30)">
<path d="M25.3896 11.2496C25.3896 10.3356 24.9438 9.52201 24.2485 9.00269C24.1736 8.90922 24.0916 8.81574 24.0024 8.72919L16.7172 1.6561C15.5725 0.544767 13.7182 0.544767 12.5736 1.6561C11.4289 2.76744 11.4289 4.56774 12.5736 5.67907L15.3835 8.40721H2.92765C1.31227 8.40721 0 9.6778 0 11.2496C0 12.8214 1.31227 14.092 2.92765 14.092H15.3871L12.5771 16.8201C11.4324 17.9315 11.4324 19.7318 12.5771 20.8431C13.7218 21.9544 15.5761 21.9544 16.7208 20.8431L24.006 13.77C24.0951 13.6835 24.1772 13.59 24.2521 13.4965C24.9438 12.9772 25.3932 12.1636 25.3932 11.2496H25.3896Z" fill="#00BCFF"/>
</g>
<defs>
<clipPath id="clip0_1_30">
<rect width="25.3896" height="20.8557" fill="white" transform="translate(0 0.82196)"/>
</clipPath>
</defs>
</svg>
