<svg width="24" height="24" viewBox="0 0 24 24" fill="none" xmlns="http://www.w3.org/2000/svg">
<g clip-path="url(#clip0_1_25)">
<path d="M23.9999 12.0016C23.9999 10.474 22.7617 9.23918 21.2375 9.23918H18.6736L20.4872 7.42564C21.5672 6.34559 21.5672 4.59597 20.4872 3.51592C19.4071 2.43587 17.6575 2.43587 16.5775 3.51592L14.7639 5.32946V2.76561C14.7639 1.23806 13.5257 0.00323486 12.0015 0.00323486C10.4774 0.00323486 9.23916 1.24142 9.23916 2.76561V5.32946L7.42562 3.51592C6.34557 2.43587 4.59596 2.43587 3.51591 3.51592C2.43586 4.59597 2.43586 6.34559 3.51591 7.42564L5.32945 9.23918H2.76559C1.23804 9.23918 0.0032196 10.4774 0.0032196 12.0016C0.0032196 13.5257 1.24141 14.7639 2.76559 14.7639H5.32945L3.51591 16.5775C2.43586 17.6575 2.43586 19.4071 3.51591 20.4872C4.59596 21.5672 6.34557 21.5672 7.42562 20.4872L9.23916 18.6736V21.2375C9.23916 22.765 10.4774 23.9999 12.0015 23.9999C13.5257 23.9999 14.7639 22.7617 14.7639 21.2375V18.6736L16.5775 20.4872C17.6575 21.5672 19.4071 21.5672 20.4872 20.4872C21.5672 19.4071 21.5672 17.6575 20.4872 16.5775L18.6736 14.7639H21.2375C22.765 14.7639 23.9999 13.5257 23.9999 12.0016Z" fill="#00BCFF"/>
</g>
<defs>
<clipPath id="clip0_1_25">
<rect width="24" height="24" fill="white"/>
</clipPath>
</defs>
</svg>
