<svg width="28" height="24" viewBox="0 0 28 24" fill="none" xmlns="http://www.w3.org/2000/svg">
<g clip-path="url(#clip0_73_9)">
<path d="M24.0619 2.18327H15.0554C14.4056 0.888446 13.0785 0 11.5466 0H3.93812C1.76428 0 0 1.78486 0 3.98406V20.0159C0 22.2151 1.76428 24 3.93812 24H24.0619C26.2357 24 28 22.2151 28 20.0159V6.16733C28 3.96813 26.2357 2.18327 24.0619 2.18327ZM18.773 14.4382L13.0667 18.0916C12.0191 18.761 10.6487 18 10.6487 16.745V9.43825C10.6487 8.18327 12.0191 7.41833 13.0667 8.09163L18.773 11.745C19.7496 12.3705 19.7496 13.8127 18.773 14.4382Z" fill="#C9C9C9"/>
</g>
<defs>
<clipPath id="clip0_73_9">
<rect width="28" height="24" fill="white"/>
</clipPath>
</defs>
</svg>
