<svg width="219" height="51" viewBox="0 0 219 51" fill="none" xmlns="http://www.w3.org/2000/svg">
<g clip-path="url(#clip0_14_267)">
<path d="M195.34 0C186.383 0 178.571 5.30567 174.485 13.1231C173.348 10.9754 171.923 9.00053 170.2 7.23501C165.491 2.42987 159.303 -0.0546038 152.782 0.263919C146.657 0.555139 140.947 3.37634 136.716 8.20878C132.522 13.0048 130.203 19.257 130.203 25.8276V29.0401C130.203 29.113 130.194 29.1858 130.194 29.2677C130.194 29.3496 130.194 29.4133 130.203 29.4952V46.4315C130.203 48.2152 131.556 49.6622 133.225 49.6622C134.894 49.6622 136.247 48.2152 136.247 46.4315V32.5075H153.846C155.515 32.5075 156.868 31.0605 156.868 29.2768C156.868 27.493 155.515 26.046 153.846 26.046H136.247V25.8458C136.247 15.5803 143.626 7.18951 153.034 6.73447C157.896 6.50696 162.506 8.34529 166.006 11.9309C169.515 15.5166 171.445 20.3399 171.445 25.5273C171.445 25.6456 171.463 25.7548 171.481 25.864C171.653 39.7607 182.288 51.0182 195.331 51.0182C208.375 51.0182 219.191 39.5787 219.191 25.5182C219.191 11.4577 208.501 0 195.34 0ZM195.34 44.5294C185.517 44.5294 177.534 35.993 177.534 25.5C177.534 15.007 185.526 6.47056 195.34 6.47056C205.155 6.47056 213.147 15.007 213.147 25.5C213.147 35.993 205.155 44.5294 195.34 44.5294Z" fill="#00BCFF"/>
<path d="M115.977 1.3469C114.308 1.3469 112.955 2.7939 112.955 4.57762V8.5546C108.58 3.31263 102.22 0 95.1484 0C86.2 0 78.3973 5.28747 74.311 13.0958C73.6615 11.849 72.9128 10.6478 72.0649 9.52837C68.7273 5.08726 64.0366 1.93844 58.8769 0.664347C57.2532 0.263919 55.6205 1.3469 55.2416 3.08512C54.8628 4.82334 55.8821 6.56156 57.5058 6.96199C65.6062 8.97323 71.2711 16.5996 71.2711 25.5C71.2711 35.993 63.2789 44.5294 53.4646 44.5294C49.5226 44.5294 45.8693 43.1552 42.9196 40.8255C45.9324 36.5573 47.7185 31.2425 47.7185 25.5C47.7185 18.7382 45.2649 12.3587 40.8088 7.55353C40.2405 6.94379 39.4647 6.59797 38.6619 6.59797C37.8501 6.59797 37.0833 6.94379 36.515 7.55353C32.0589 12.3587 29.6053 18.7291 29.6053 25.5C29.6053 31.2516 31.3914 36.5573 34.4042 40.8255C31.4545 43.1552 27.8012 44.5294 23.8593 44.5294C14.0359 44.5294 6.05276 35.993 6.05276 25.5C6.05276 16.5905 11.7086 8.97323 19.8181 6.96199C21.4418 6.56156 22.4611 4.82334 22.0822 3.08512C21.7034 1.3469 20.0797 0.263919 18.4469 0.664347C13.2782 1.94754 8.59655 5.09636 5.25896 9.52837C1.86725 14.0332 0 19.7029 0 25.5C0 39.5605 10.7073 51 23.8593 51C29.443 51 34.5937 48.9342 38.6619 45.485C42.7302 48.9342 47.8809 51 53.4646 51C62.4129 51 70.2247 45.7034 74.302 37.8951C78.3882 45.7034 86.191 51 95.1393 51C102.211 51 108.571 47.6874 112.946 42.4454V46.4224C112.946 48.2061 114.299 49.6531 115.968 49.6531C117.636 49.6531 118.99 48.2061 118.99 46.4224V4.57762C118.99 2.7939 117.636 1.3469 115.968 1.3469H115.977ZM38.6619 36.0749C36.7676 33.0444 35.6581 29.4133 35.6581 25.5C35.6581 21.5867 36.7135 18.0193 38.6619 14.9069C40.6194 18.0193 41.6657 21.6777 41.6657 25.5C41.6657 29.3223 40.5562 33.0444 38.6619 36.0749ZM95.1484 44.5385C85.325 44.5385 77.3419 36.0021 77.3419 25.5091C77.3419 15.0161 85.334 6.47966 95.1484 6.47966C104.963 6.47966 112.955 15.0161 112.955 25.5091C112.955 36.0021 104.963 44.5385 95.1484 44.5385Z" fill="#00BCFF"/>
</g>
<defs>
<clipPath id="clip0_14_267">
<rect width="219" height="51" fill="white"/>
</clipPath>
</defs>
</svg>
